<svg viewBox="0 0 100 100" xmlns="http://www.w3.org/2000/svg"><style>@media (prefers-color-scheme:dark){path{fill:#fff}}</style><path d="M55.72 13.15l-.26 3a10.68 10.68 0 00-1.32-.44 3.85 3.85 0 011.4-2.47.33.33 0 00.18-.09zM58.45 17c.79-1.67-.09-3.61-1.15-4.75a5.12 5.12 0 01-.44-2L56.69 4l-1.32 6.16a6.43 6.43 0 01-.79 1.93c-1.24 1-2.47 2.73-1.94 4.49l.09.44.44.08a8.24 8.24 0 011.93.71l.27.09.26-.09a11.7 11.7 0 012-.35h.44zM55 20.8l-3.88 44a42.91 42.91 0 00-8.09-5c7.06-10.24 11.02-32.14 11.97-39zm7.65 41.51l-.09-.09a4.26 4.26 0 01-.44-.88c-.17-.26-.26-.61-.44-1-5.19-11.78-4.57-35.79-4.4-40.63v-.88l-1 .18a4.64 4.64 0 00-1 .26 2.2 2.2 0 00-.88-.44l-.88-.35-.09.88c-.7 4.93-4.49 30.08-12.14 40.19l-.62.79.88.44a43 43 0 019.15 5.72l.44.35.44-.26a46 46 0 0110-4.05zM50.62 71.1l-.44 5.19a64.25 64.25 0 00-12.06-8.44 39.76 39.76 0 003.26-3.69c2.72 1.4 7.83 4.84 9.24 6.94zm15.84-.26a1.17 1.17 0 01-.18-.26l-.53-.58a34.26 34.26 0 01-3.34-5.36l-.27-.64v-.09c-2.55.71-9.5 3.52-11.17 5-1.32-1.68-6.87-5.11-9.42-6.42l-.61-.36-.36.53a33.63 33.63 0 01-4.31 4.66l-.79.79 1 .53A68.89 68.89 0 0149.74 78l.44.44.52-.35a65.54 65.54 0 0114.7-6.86zM49.65 82.63l-1 11a50.56 50.56 0 00-5.9-7c1.15-4.75.44-8.71-1.76-10.73l-.52-.44-.71.09c-2.73.18-4.75 2.29-6.16 4-1.05-.7-2-1.23-2.81-1.67a44.39 44.39 0 005.54-5.71c9.15 5.71 12.23 9.32 12.32 9.41zM48.64 96l4-3.7c1.4-1.15 2.77-2 4.35-3.08l.35-.26v-.44c-.35-4.4.71-7.83 2.73-9.24 2.73.71 4.14 3.87 4.93 5.63a33.92 33.92 0 017-2.72l-.09-.09-.79-.88a38.85 38.85 0 01-5.37-7.83l-.35-.61c-10.47 4-14.7 7.21-15.49 7.82-.26-.35-3.69-4.13-13.29-10l-.62-.38-.44.62A40.21 40.21 0 0129 77.61l-1 .79 1.06.53c1 .53 2.46 1.32 4.4 2.55l.61.44.44-.61c1.15-1.68 3-3.87 5.37-4 1.85 1.8 2.29 5.4 1.12 9.69l-.08.44.35.35A21.5 21.5 0 0145.61 92"/></svg>