<svg version="1" xmlns="http://www.w3.org/2000/svg" width="933.333" height="933.333" viewBox="0 0 700.000000 700.000000"><path d="M600.9 51.6c0 1-.2 2.6-.4 3.4-.1.8-.8 4.2-1.4 7.5-.7 3.3-1.6 7.3-2.1 9-.5 1.6-1.1 4.7-1.4 6.7-1 6.4-4.2 13.2-8.3 17.4-2.2 2.3-5 6.2-6.2 8.6-3.1 6.5-2.7 16.8.8 16.8.9.1 4.1.9 7.1 2 5 1.7 6.3 1.8 13.4.7 9.5-1.4 11.1-3.1 11-11.6 0-4.3-.7-6.9-3-10.9-7.3-13.3-6.8-10.9-7.8-39.5-.2-5.9-.6-11.1-1-11.4-.3-.4-.6.2-.7 1.3zm-4.4 49.5c-.2 1.1-.5 4.2-.6 6.9-.3 6.8-1 7.6-4.8 6-4.3-1.7-4-3.8 1.7-11.8 2.7-3.6 4.3-4.2 3.7-1.1zM582.6 146.2c-2.2 14-7.9 45.6-10 55.3-15.5 72.7-31.7 120.2-51.3 150.5-3.1 4.7-5.9 8.7-6.3 9-2.5 1.6-.3 3.4 10.5 9 12.5 6.4 29.8 17.4 39.9 25.4 3.3 2.5 6.2 4.5 6.5 4.4.4-.2 6.2-3.1 13.1-6.4 13.7-6.8 26.9-11.9 40.5-15.9 4.9-1.4 9-2.7 9.2-2.9.3-.3-3.7-10.5-7.2-18.1-2.3-5.1-8.3-26.5-10.4-37.5-3-15.1-3.8-19.4-4.5-24.5-2.3-16.3-4.4-36.4-5.1-48-.2-3.3-.7-11.6-1.1-18.5-.5-6.9-.9-31.5-.9-54.8 0-46.8.6-43-6.9-41.3-3 .7-4.8.5-8.3-1-2.5-1-4.6-1.9-4.7-1.9-.2 0-1.5 7.8-3 17.2zm9 10.5c-.3 2.7-.8 7.7-1.1 11.3-.7 9.1-1.6 18-2 21-.2 1.4-.7 7.2-1 13-.4 5.7-.8 11.1-1 12-.2.8-.6 5.3-.9 10-.4 4.7-.9 10.3-1.1 12.5-.4 3.6-1.8 19.6-3 33.5-.6 7.4-1.5 17.5-2 23-.2 2.5-.7 7.4-1 11-1.1 13.8-1.6 18.6-2 22-.2 1.9-.7 7.1-1 11.5-.3 4.4-.8 10.2-1.1 12.8-.2 2.6-.7 7.4-.9 10.5-.5 6.9-2 23.2-2.4 26.5-.1.4-2.2-.8-4.8-2.7-7.7-5.7-6.2-4.7-18.8-12.4-4.4-2.7-10.7-6.4-14-8.1-3.3-1.8-6.3-3.6-6.7-3.9-.4-.4 1.1-3.5 3.2-6.9 5.8-9 14.1-26 19.4-39.8 2.6-6.6 5.1-12.9 5.6-14 1.6-3.5 8.8-26.6 13.1-41.5 6.8-24.2 16.6-66.8 20.4-89 1.1-6.3 2.5-15.6 2.5-16.3 0-.4.3-.7.6-.7s.3 2.1 0 4.7zM412.8 239.5c-.1.1-2.8.6-5.8.9-11.5 1.4-21.8 8.5-26.7 18.4-2.4 4.9-2.8 6.9-2.8 14.2 0 9.9 1.9 14.4 8.4 20.3 5.5 5 13.2 8.7 28.6 13.7 13.9 4.5 23 8.8 26.5 12.5 5 5.4 5.9 15.4 1.9 22.5-7.9 14-36.7 15.7-51.1 3-4-3.5-7.7-9.3-9.2-14.3-.5-1.7-1-1.6-5.6 1-5.8 3.2-5.9 4.3-1.3 12.3 8.3 14.1 23.1 21.2 43.3 20.6 12.5-.3 19.5-2.6 27.3-9 7.5-6.1 11.1-13.6 11.4-23.6.2-6.6-.2-8.6-2.3-12.9-5.1-10.2-13.9-15.5-39.6-24-16.9-5.6-22.5-8.8-25.1-14.4-3.3-6.9-1.2-17.2 4.4-22.4 4.3-4 11.6-6.5 18.8-6.6 12.6-.1 22.3 5.4 27.6 15.6l2.8 5.4 4.5-2.5c2.4-1.4 4.6-3.1 4.9-3.8.6-1.6-3.4-8.5-7.4-13-6.6-7.2-16.3-12.2-25.8-13.1-2.7-.2-5.5-.6-6.2-.8-.6-.2-1.3-.2-1.5 0zM0 302.7V364h11v-22.5c0-12.4.3-22.5.8-22.6.4 0 9-.2 19.2-.3 16.3-.3 19.2-.6 24.3-2.5 16.1-6.2 25.7-21.7 24.5-39.3-1.2-16.7-14.5-31.5-30.8-34.4-2.5-.4-14.5-.8-26.8-.8L0 241.5v61.2zm49.4-48.3c12.1 3.6 19 14.6 18 28.5-.7 10.5-8.4 20.1-18.2 22.7-2.8.7-11.5 1.2-21.4 1.3H11V253h16.8c11.7 0 18.3.4 21.6 1.4zM133.5 242.4c-.7.6-3.2 6-5.5 12.1-2.3 6-4.8 12.3-5.5 14-.7 1.6-4.5 11.5-8.5 22-4 10.4-7.8 20.3-8.5 22-2.4 5.6-19.5 50.1-19.5 50.8 0 .4 2.8.7 6.3.7h6.2l5.4-14.3c3-7.8 5.8-14.7 6.3-15.2.6-.6 11.6-1 29.3-1H168l.9 2.5c.5 1.4 3.1 8.2 5.7 15.2l4.8 12.8h6.4c4.7 0 6.3-.3 5.9-1.3-.3-.6-8.9-23-19.2-49.7-10.3-26.7-19.2-49.9-20-51.5-.7-1.7-2.5-6.4-4-10.5-1.6-4.1-3.2-7.9-3.6-8.4-1.1-1.3-9.8-1.4-11.4-.2zM149 285c5.1 13.5 10.3 27.3 11.6 30.7l2.4 6.3h-48.7l10.9-28.3c6.1-15.5 11.5-29.7 12.1-31.5.6-1.8 1.4-2.9 1.7-2.5.4.5 4.9 11.8 10 25.3zM212 247.2c-.1 8.7-.1 98.4 0 108.4v8.2l5.8-.2 5.7-.1.1-23.8c.1-13 .4-24 .7-24.4.4-.3 8-.6 17-.7l16.4-.1 13.4 22.9c7.4 12.6 13.9 23.6 14.5 24.5 1.3 1.7 13.4 2.5 13.4.8 0-.8-4.1-7.9-22.7-39.2l-5.9-10 5-2.4c2.8-1.4 7.2-4.6 9.8-7.2 19.8-19.8 10.7-53.1-16.8-61.4-3-.9-12.3-1.3-30.4-1.4l-26-.2v6.3zm58.2 9c9.1 5.4 13.9 14.2 13.2 24.3-.7 8.5-5.3 15.6-13.4 20.3-4.4 2.6-5 2.7-23.5 3-10.4.1-19.9 0-21-.2-1.9-.5-2-1.3-1.8-23.8.1-12.8.2-24.1.2-25.1.1-1.7 1.3-1.8 20.9-1.5 20.5.3 20.7.3 25.4 3zM333.2 242.5c-.4.5-.7 28.1-.7 61.3v60.3l6-.3 5.9-.3.1-60.7c0-33.5-.2-60.8-.5-60.9-3.4-.5-10.3-.2-10.8.6z"/><path d="M508.5 380.6c-2.7 3.6-9.4 10.9-14.7 16.2-5.4 5.3-9.8 10-9.8 10.3 0 .4 2.6 2.1 5.8 3.7 22.3 11.6 53.8 33.5 70.3 49l5.6 5.2 5.9-3.8c19.3-12.3 44-24 72.6-34.3 6.1-2.1 11.5-4.2 12-4.5.5-.4-.1-1.8-1.4-3.3-5.2-5.6-17.2-24.6-20.8-32.7l-1.4-3.1-8 2.7c-16.2 5.5-38.5 15.4-48.8 21.6l-5.8 3.5-3.7-3.5c-7.3-7-49-33.8-52.1-33.5-.4 0-2.9 2.9-5.7 6.5zm18.8 10.6c15.2 9.1 26.8 17.9 35.9 27l4.8 4.8-.6 9.7c-.4 5.4-.8 10.5-1 11.3-.1.8-.3 3-.3 4.7-.1 3.9-.8 4.1-4.1 1-1.9-1.8-18.6-15-24.5-19.4-5.2-3.9-16-11-26.6-17.3l-12.7-7.7 4.2-4.4c2.3-2.4 6.4-7 9-10.2 2.7-3.1 5-5.7 5.3-5.7.2 0 5 2.8 10.6 6.2zM2.7 385.8l-2.7.3v121l30.8-.3 30.7-.3 6.7-3.2c13.5-6.4 20.9-17.3 21-31.3.1-9.5-2.3-15.9-8.5-22.4l-5.2-5.4 3.2-4.2c4.5-5.7 6.7-13.7 5.9-21.4-.8-8.8-1.3-10.5-5.4-16.6-5.9-8.8-16-14.6-27.2-15.7-5.5-.5-45.4-.9-49.3-.5zm49.5 28.6c5.6 3.7 6 13.2.6 16.5-2.3 1.5-24.7 2.6-24.9 1.2-.1-.8-.1-18.4 0-19.2.1-.3 4.9-.4 10.9-.4 8.3.1 11.3.5 13.4 1.9zm3.6 45.4c5.5 3.1 6.3 12.8 1.5 17.4-2.3 2.2-3.2 2.3-16 2.3H27.7v-9c.1-5 .2-9.7.2-10.6.1-1.4 1.8-1.6 12.9-1.5 8.4.1 13.5.6 15 1.4zM117 385.8c-.7.3-1 21.4-1 60.8V507l38.3-.2 38.2-.3.1-13.2c0-8.6-.3-13.3-1-13.6-.6-.2-11.3-.3-23.8-.3l-22.6.1-.4-5c-.2-2.8-.1-7.3.2-10l.5-5 16-.2c8.8-.1 18.3-.2 21.2-.2l5.1-.1-.1-13.4-.1-13.5-21.2.2-21.3.2-.3-3.5c-.2-1.9-.2-6.2 0-9.6l.4-6h46.3l.1-12.9c.1-7.2-.2-13.5-.5-14-.5-.9-71.5-1.5-74.1-.7zM225.2 386.5c-.4.5-.7 27.9-.8 60.7l-.1 59.8h76.8l-.3-13.8-.3-13.7h-47l-.3-10.2-.3-10.2h19.8c10.9.1 20.6 0 21.6 0 1.6-.1 1.7-1.2 1.5-13.4l-.3-13.2-19-.2c-10.4-.1-20-.3-21.3-.3-2.2 0-2.3-.2-2-9.3l.3-9.2 22.7-.1c12.5 0 23.1-.3 23.5-.7 1.1-1.1 1-25.8-.1-26.5-1.7-1-73.7-.8-74.4.3zM332.9 385.5c-.1 0-.2 27.3-.3 60.7l-.1 60.8H361v-19.5c0-16.6.2-19.5 1.5-19.6.8-.1 3.1-.1 5-.1s4.1 0 4.9.1c1.1.1 14.8 22.2 16.5 26.6.2.5.7 1.2 1 1.5.3.3 1.8 2.7 3.3 5.5l2.7 5 15.6.3 15.7.3-3.1-5.3c-1.6-2.9-7.3-12.7-12.6-21.8l-9.5-16.5 3.1-2.5c12.8-10.1 18.5-21.5 18.1-36.1-.3-12.5-9-26.5-20.6-33.3-9.8-5.7-14-6.1-69.7-6.1zm57.1 31.3c2.2 2.2 4.1 4.7 4.1 5.8.1 1 .2 3.4.4 5.2.3 4.4-2.8 10.4-6.7 12.6-2.5 1.5-5.4 2-13.7 2.1-5.8.1-11.2 0-11.8-.3-1-.3-1.3-4.2-1.3-14.8V413h24.9l4.1 3.8z"/><path d="M483.3 422.8c-7.4 10-22.8 26-35 36.3-3.5 2.9-6.3 5.5-6.3 5.8 0 .3 1.9 1.5 4.2 2.6 2.3 1.1 9.7 5.3 16.5 9.2 6.7 4 12.4 7.3 12.7 7.3.3 0 2-2.1 3.7-4.8 6.9-10 17.4-18.3 25-19.7 3.2-.6 3.9-.3 6.2 2.4 4.9 5.9 7 13.4 7 25.6 0 11.2-.1 12.9-2.3 22.5l-1.2 5.5 6.7 7c3.7 3.8 8.7 9.3 11.1 12.1l4.4 5.1-13.9 40.9c-7.6 22.5-16.1 47.5-18.9 55.7l-5 14.7 15.6-.2 15.6-.3 2.8-9 2.8-9h44.1l2.8 9 2.8 9 15.8.3c14.7.2 15.7.1 15-1.5-.4-1-1.1-2.9-1.5-4.3-.5-1.4-5.9-17.1-12-35-18.7-54.4-22-64.7-21.5-66.1.3-.8 6.2-5.6 13-10.7l12.4-9.3v-9.2c.1-19.9 4-33.7 11.8-42 3.2-3.2 4.2-3.3 9.1-.8 7 3.6 13 10.8 19.2 22.9 1.7 3.4 3.3 6.2 3.6 6.2.2 0 3-1.3 6.2-2.9 6.6-3.3 25.5-10.5 30.5-11.7.4-.1.9-.2 1.2-.3.2 0-3.4-4.7-8-10.2-10.4-12.5-24.1-32.9-26.8-40.3-1-2.6-3.6-1.9-20.7 5.4-26.5 11.3-47.6 22.2-61.8 31.9l-6 4-5.4-5.2c-8-7.6-12-11-25.3-21-12.7-9.6-38.9-27.2-44.3-29.9l-3.2-1.7-2.7 3.7zm32 25.4c15 10.7 29.3 22.3 38.8 31.7l8.7 8.6-.8 8.5c-.5 4.7-1.1 12.1-1.5 16.5-.3 4.4-.7 9.3-1 11-.3 3.2-1.8 21.1-1.8 23.2 0 2.3-1.3 1.4-4.7-3.3-5.4-7.5-17.4-21.5-26-30.3-2.7-2.7-2.8-3.6-1.2-11.3 2.5-12.6 1-30.6-3.4-40.2-2.2-4.8-10.2-14.8-11.3-14.2-.3.2-3 .6-5.9 1-8.1 1-16.4 5.7-25.1 14.4l-7.7 7.7-7.6-4.6-7.6-4.6 9.2-8.6c5-4.8 11.9-12.1 15.4-16.1l6.3-7.5 8.7 5.6c4.8 3.1 13.1 8.7 18.5 12.5zm49.8 135.4c3.2 10.3 5.9 19.1 5.9 19.5 0 .4-5.8.8-13 .8-7.1 0-13-.1-13-.3 0-.1.6-2.2 1.4-4.7.8-2.4 3.3-10.2 5.6-17.2 5.1-16 5.9-18.1 6.6-17.4.3.3 3.2 9 6.5 19.3zM203.7 527.5c-11.7 3-23 13-26.6 23.8-5 14.6-.9 29.9 10.4 38.5 6 4.6 12.4 7.5 23.5 10.6 21.3 6 25.9 9.4 23.7 17.7-.9 3.5-6.5 6.1-13.6 6.4-10.7.4-18.8-3.7-23.7-12.1l-2.6-4.5-5.7 3.2c-14.8 8.4-19.1 11-19.1 11.5 0 2.5 5.6 11 10.3 15.7 9.8 9.8 23.1 14.6 39.2 14.1 15.9-.4 25.8-4 34.3-12.5 7-7 9.6-13.7 9.5-25 0-19-9.4-28.4-37.1-37.3-6.2-1.9-12.9-4.4-15-5.5-7-3.6-9.1-8-6.1-13 1.7-2.8 2.7-3.3 9.1-4.5 3.1-.7 10.9 1.4 14 3.5 1.7 1.2 4.3 4.1 5.7 6.5l2.7 4.2 10.9-6.4c6-3.5 11.5-7 12.2-7.7 1-1 .5-2.4-2.8-7.1-6.3-9.1-14.8-15.7-24.4-19-6.9-2.4-21.5-2.9-28.8-1.1zM0 589.1v60.7h13.9l13.8-.1v-21.3c0-11.8.2-21.6.5-21.9.3-.3 10.3-.6 22.2-.5H72l.1-2.8c.1-3 0-23.2 0-24.5-.1-.4-10-.7-22.1-.7-16.9 0-22-.3-22.1-1.3 0-.6-.1-5.5-.2-10.7l-.1-9.5 22.8-.3 22.7-.2-.3-13.8-.3-13.7-36.2-.1H0v60.7zM86.6 528.9c-.2.6 0 115.8.3 119.3.1 1.5 3.3 1.6 37.9 1.5l37.7-.2.3-13.8.3-13.7H115v-20h43v-27l-17.7-.1c-9.8 0-19.5-.1-21.5-.1H115V556h47.6l-.2-13.3c-.1-7.2-.2-13.5-.3-13.8-.1-.7-75.1-.7-75.5 0zM266.8 528.4c0 .1-.2 6.2-.3 13.6l-.2 13.5 15.6.5 15.5.5.1 46.5v46.5l14.3.1 14.2.2V556h30.9l.3-11.8c.2-6.4.2-12.6 0-13.8-.3-2-.6-2-45.2-2h-45.2zM367 589v60.7H395.7l-.1-60.6-.1-60.6-14.2-.1-14.3-.1V589z"/><path d="M405 528.9c0 .5 16.2 50.4 30.8 94.8l8.6 26.2 18-.2 18-.2 2.8-9c5.9-18.1 30-92.3 32.9-100.8 1.6-4.8 2.9-9.3 2.9-10.1 0-1-3.4-1.3-15.5-1.2-8.5 0-15.5.1-15.5.2 0 .2-10.2 34.1-12.4 41.4-.8 2.5-4 13-7.1 23.5-5.7 19.1-7.4 23.7-7.5 20.3 0-.9-4.3-15.9-9.6-33.5-5.3-17.5-10.9-36.3-12.6-41.9l-3-10.1-15.4.1c-8.5 0-15.4.2-15.4.5zM627.9 528.4c-.1.1-.3 27.4-.4 60.7l-.1 60.7 35.8.1 35.8.2V622h-43v-93.6h-14c-7.7-.1-14.1 0-14.1 0z"/></svg>